<?xml version="1.0"?>
<svg xmlns="http://www.w3.org/2000/svg" viewBox="0 0 64 64" fill="#6464b4"><g id="Global"><path d="M45,28a9,9,0,1,0-9-9A9.011,9.011,0,0,0,45,28Zm0-16a7,7,0,1,1-7,7A7.008,7.008,0,0,1,45,12Z"/><path d="M62,19A16.972,16.972,0,0,0,33.772,6.269,26.877,26.877,0,0,0,30,6,27.991,27.991,0,0,0,3.61,43.347c.008.02.012.04.02.059A28,28,0,0,0,58,34a26.883,26.883,0,0,0-.223-3.424C60.189,26.325,62,22.1,62,19Zm-2,0c0,7.292-11.838,22.489-15,26.417C41.838,41.489,30,26.3,30,19a15,15,0,0,1,30,0ZM22,9.265V11a1,1,0,0,1-1,1,3.015,3.015,0,0,0-3,3v5a1,1,0,0,1-1,1H13a3,3,0,0,0-3,3,3.015,3.015,0,0,0,3,3H23a3,3,0,0,1,3,3v3a3,3,0,0,1-3,3H22a3.032,3.032,0,0,0-2.4,1.2l-2,2.663A2.993,2.993,0,0,0,17,41.67l0,7.913-1.65-1.65a2.026,2.026,0,0,1-.547-1.019l-.5-2.5A3.011,3.011,0,0,0,11.36,42H5.265A25.983,25.983,0,0,1,22,9.265ZM6,44H11.36a1,1,0,0,1,.979.806l.5,2.506a4.009,4.009,0,0,0,1.092,2.035L15.583,51A2,2,0,0,0,19,49.59V41.67a.972.972,0,0,1,.2-.6l2-2.665A1.017,1.017,0,0,1,22,38h1a5.006,5.006,0,0,0,5-5V30a5.006,5.006,0,0,0-5-5H13a.974.974,0,0,1-.712-.306A.957.957,0,0,1,12,24a1,1,0,0,1,1-1h4a3,3,0,0,0,3-3V15a.974.974,0,0,1,.306-.712A.957.957,0,0,1,21,14a3,3,0,0,0,3-3V8.707A25.923,25.923,0,0,1,30,8c.683,0,1.345.025,2,.074A16.913,16.913,0,0,0,28,19c0,5.9,6.542,15.847,11.326,22.337a2.98,2.98,0,0,0-1.592,2.169l-.441,2.66A1,1,0,0,1,36.31,47H32.36a2.006,2.006,0,0,0-1.281.462l-4.493,3.755a2.965,2.965,0,0,0-.771,3.65L27,57.236v2.586A26.064,26.064,0,0,1,6,44ZM30,60c-.335,0-.668-.013-1-.025V57a1,1,0,0,0-.105-.447L27.6,53.969a.982.982,0,0,1,.259-1.211L32.36,49h3.95a2.989,2.989,0,0,0,2.957-2.506l.44-2.66a1,1,0,0,1,.877-.814c1.981,2.614,3.455,4.389,3.648,4.621a1,1,0,0,0,1.536,0c.194-.233,1.674-2.016,3.663-4.641H51.84a1.008,1.008,0,0,1,.854.477l.884,1.463A26.03,26.03,0,0,1,30,60ZM56,34a25.887,25.887,0,0,1-1.479,8.633l-.118-.194A3.02,3.02,0,0,0,51.84,41h-.918c1.612-2.2,3.4-4.766,5.064-7.428C55.988,33.716,56,33.855,56,34Z"/></g></svg>
