<svg height="496pt" viewBox="0 0 496 496" width="496pt" xmlns="http://www.w3.org/2000/svg"><path d="m472 296c-13.230469 0-24 10.769531-24 24v5.601562c-10.886719-2.867187-21.664062-5.898437-32.238281-9.113281-1.175781-21.777343-9.28125-42.785156-23.3125-59.695312l-10.304688-12.304688c-4.015625-4.832031-6.144531-10.695312-6.144531-16.96875 0-.953125.0625-1.839843.121094-2.703125.488281-4.777344 2.277344-9.351562 5.160156-13.207031l5.832031-7.753906c8.421875-11.183594 12.886719-24.550781 12.886719-38.65625 0-25.808594-15.3125-49.039063-39.007812-59.191407l-17.015626-7.289062.023438-2.71875c0-25.65625-9.976562-49.769531-28.105469-67.894531-18.125-18.128907-42.230469-28.105469-67.894531-28.105469-52.9375 0-96 43.0625-96 96v2.726562l-16.992188 7.28125c-18 7.695313-31.246093 23.382813-36.464843 41.839844l-50.542969-39.734375v-4.113281c0-13.230469-10.769531-24-24-24h-24v128h24c13.089844 0 23.71875-10.535156 23.960938-23.566406l55.527343 43.644531.839844.65625c4.304687 3.355469 8.671875 6.691406 13.046875 10.019531-.960938 2.054688-2.085938 4.015625-3.503906 5.71875l-10.34375 12.351563c-15.175782 18.28125-23.527344 41.398437-23.527344 65.097656 0 15.796875 3.726562 31.519531 10.761719 45.398437l1.160156 2.34375c-9.960937 3.648438-17.128906 13.128907-17.128906 24.335938 0 1.367188.046875 2.734375.238281 3.769531l10.800781 75.847657c1.847657 12.757812 12.960938 22.382812 25.847657 22.382812h272.640624c12.886719 0 24-9.625 25.839844-22.390625l10.792969-75.777344c.359375-2.390625.285156-4.742187.007813-7.039062 8.75 2.550781 17.78125 5.023437 27.039062 7.398437v1.808594c0 13.230469 10.769531 24 24 24h24v-128zm-91.832031-28.976562c10.488281 12.65625 17.039062 28.054687 19.078125 44.199218-18.566406-5.949218-37.070313-12.46875-55.246094-19.636718v-22.304688c0-6.335938 2.550781-12.519531 7.015625-16.984375l11.273437-11.273437c1.671876 4.960937 4.175782 9.640624 7.574219 13.710937zm3.832031-101.824219c0 10.601562-3.34375 20.640625-9.671875 29.03125l-5.847656 7.785156c-3.894531 5.207031-6.449219 11.257813-7.6875 17.886719l-21.089844 21.089844c-7.4375 7.433593-11.703125 17.742187-11.703125 28.289062v15.863281c-41.816406-17.382812-82.367188-37.863281-120.96875-61.144531h92.167969c15.832031 0 29.457031-11.832031 31.679687-27.519531l11.570313-81.015625 12.246093 5.246094c17.800782 7.632812 29.304688 25.097656 29.304688 44.488281zm-195.40625 40.496093c-4.121094-2.472656-6.96875-6.75-7.632812-11.464843l-.320313-2.230469h134.71875l-.320313 2.230469c-1.109374 7.847656-7.917968 13.769531-15.839843 13.769531h-102.398438c-2.863281 0-5.695312-.800781-8.207031-2.304688zm129.046875-29.695312h-139.28125l-2.28125-16h143.851563zm4.566406-32h-148.414062l-4.570313-32h157.554688zm-74.207031-128c21.390625 0 41.488281 8.320312 56.585938 23.414062 15.09375 15.097657 23.414062 35.203126 23.414062 56.585938h-160c0-44.113281 35.886719-80 80-80zm-106.695312 104.710938 12.320312-5.277344 11.496094 81.039062c.046875.320313.183594.605469.238281.925782-17.902344-12.085938-35.328125-24.773438-51.976563-37.894532l-.839843-.664062c2.199219-16.710938 13.097656-31.433594 28.761719-38.128906zm-109.304688 63.289062c0 4.40625-3.585938 8-8 8h-8v-96h8c4.414062 0 8 3.59375 8 8zm83.816406 83.054688 10.328125-12.335938c1.625-1.941406 3.023438-4.085938 4.28125-6.320312 7.148438 5.195312 14.0625 10.058593 20.710938 14.539062.542969 2.054688.863281 4.214844.863281 6.34375v116.191406c-8.816406 3.144532-15.199219 11.238282-15.839844 20.953125l-12.023437-23.96875c-2.96875-6.023437-8.160157-10.464843-14.296875-12.703125l-4.769532-9.609375c-5.933593-11.703125-9.070312-24.921875-9.070312-38.222656 0-19.976563 7.046875-39.464844 19.816406-54.867187zm244.023438 139.371093c-.640625-9.722656-7.03125-17.816406-15.839844-20.953125v-20.640625c10.695312 4.136719 21.351562 8.023438 31.921875 11.648438-1.585937 1.75-2.953125 3.734375-4.035156 5.925781zm-31.839844-22.425781h-72v16h80c4.414062 0 8 3.59375 8 8v23.449219c-1.03125.351562-2.113281.550781-3.199219.550781h-185.601562c-1.085938 0-2.167969-.199219-3.199219-.558594v-23.441406c0-4.40625 3.585938-8 8-8h80v-16h-72v-109.785156c50.28125 33.113281 104 61.410156 160 84.242187zm66.328125 87.335938c-.71875 4.945312-5.015625 8.664062-10.007813 8.664062h-272.640624c-4.992188 0-9.289063-3.71875-10-8.648438l-10.847657-76.167968c-.0625-.390625-.03125-.792969-.03125-1.183594 0-5.511719 4.488281-10 10-10 .558594 0 .984375.03125 1.3125.113281l.566407.109375c3.046874.480469 5.703124 2.464844 7.136718 5.363282l22.078125 44c1.777344 3.535156 4.203125 6.503906 7.128907 8.75 4.585937 3.65625 10.328124 5.664062 16.175781 5.664062h185.601562c5.847657 0 11.589844-2.007812 16.078125-5.574219 3.03125-2.335937 5.464844-5.304687 7.234375-8.832031l22.101563-44.050781c2.128906-4.304688 7.023437-6.445313 12.03125-5.101563 4.65625 1.453125 7.609375 6.191406 6.875 11.078125zm8.839844-102.734376c-21.007813-6.511718-42.601563-14.226562-64.183594-22.90625-61.65625-24.710937-120.570313-56.144531-175.191406-93.480468-10.152344-6.734375-20.609375-14.117188-31.953125-22.542969-5.992188-4.472656-11.832032-9.015625-17.671875-13.566406l-66.167969-51.992188v-35.65625l51.097656 40.128907 4.351563 3.46875c23.3125 18.371093 48.054687 35.914062 73.511719 52.128906 49.054687 31.503906 101.558593 58.542968 156.0625 80.375 23.746093 9.519531 48.128906 18.136718 72.441406 25.570312 13.832031 4.3125 28.128906 8.3125 42.535156 12.03125v39.519532c-15.695312-4.121094-30.742188-8.488282-44.832031-13.078126zm76.832031 39.398438h-8c-4.414062 0-8-3.59375-8-8v-80c0-4.40625 3.585938-8 8-8h8zm0 0"/></svg>